<svg width="48" height="48" viewBox="0 0 48 48" fill="none" xmlns="http://www.w3.org/2000/svg">
<rect width="48" height="48" fill="white"/>
<rect y="47" width="48" height="1" fill="#DFDFDF"/>
<path fill-rule="evenodd" clip-rule="evenodd" d="M33 17H29V16C29 14.3 27.7 13 26 13H22C20.3 13 19 14.3 19 16V17H15C14.4 17 14 17.4 14 18C14 18.6 14.4 19 15 19H16V32C16 33.7 17.3 35 19 35H29C30.7 35 32 33.7 32 32V19H33C33.6 19 34 18.6 34 18C34 17.4 33.6 17 33 17ZM21 16C21 15.4 21.4 15 22 15H26C26.6 15 27 15.4 27 16V17H21V16ZM29 33C29.6 33 30 32.6 30 32V19H18V32C18 32.6 18.4 33 19 33H29Z" fill="#212529"/>
<mask id="mask0_13_526" style="mask-type:alpha" maskUnits="userSpaceOnUse" x="14" y="13" width="20" height="22">
<path fill-rule="evenodd" clip-rule="evenodd" d="M33 17H29V16C29 14.3 27.7 13 26 13H22C20.3 13 19 14.3 19 16V17H15C14.4 17 14 17.4 14 18C14 18.6 14.4 19 15 19H16V32C16 33.7 17.3 35 19 35H29C30.7 35 32 33.7 32 32V19H33C33.6 19 34 18.6 34 18C34 17.4 33.6 17 33 17ZM21 16C21 15.4 21.4 15 22 15H26C26.6 15 27 15.4 27 16V17H21V16ZM29 33C29.6 33 30 32.6 30 32V19H18V32C18 32.6 18.4 33 19 33H29Z" fill="white"/>
</mask>
<g mask="url(#mask0_13_526)">
<path fill-rule="evenodd" clip-rule="evenodd" d="M12 12H36V36H12V12Z" fill="#212529"/>
</g>
</svg>
