<svg width="48" height="48" viewBox="0 0 48 48" fill="none" xmlns="http://www.w3.org/2000/svg">
<rect width="48" height="48" fill="white"/>
<rect y="47" width="48" height="1" fill="#DFDFDF"/>
<path fill-rule="evenodd" clip-rule="evenodd" d="M31 15.1716C30.7599 15.1716 30.5222 15.2189 30.3003 15.3108C30.0785 15.4027 29.8769 15.5374 29.7071 15.7072L16.3949 29.0194L15.4252 32.5748L18.9807 31.6052L32.2929 18.293C32.4627 18.1232 32.5974 17.9216 32.6893 17.6998C32.7812 17.4779 32.8284 17.2402 32.8284 17.0001C32.8284 16.7599 32.7812 16.5222 32.6893 16.3003C32.5974 16.0785 32.4627 15.877 32.2929 15.7072C32.1231 15.5374 31.9216 15.4027 31.6997 15.3108C31.4779 15.2189 31.2401 15.1716 31 15.1716ZM29.5349 13.4631C29.9994 13.2707 30.4973 13.1716 31 13.1716C31.5028 13.1716 32.0006 13.2707 32.4651 13.4631C32.9296 13.6554 33.3516 13.9374 33.7071 14.293C34.0626 14.6485 34.3446 15.0705 34.537 15.535C34.7294 15.9995 34.8284 16.4973 34.8284 17.0001C34.8284 17.5028 34.7294 18.0006 34.537 18.4651C34.3446 18.9296 34.0626 19.3517 33.7071 19.7072L20.2071 33.2072C20.0841 33.3302 19.931 33.419 19.7631 33.4648L14.2631 34.9648C13.9169 35.0592 13.5467 34.9609 13.2929 34.7072C13.0392 34.4534 12.9408 34.0832 13.0353 33.7369L14.5353 28.2369C14.581 28.069 14.6699 27.916 14.7929 27.793L28.2929 14.293C28.6484 13.9374 29.0705 13.6554 29.5349 13.4631Z" fill="#212529"/>
</svg>
